inDegrees=no
num_controls=7
num_derivatives=13
num_iterations=156
num_multipliers=7
num_parameters=0
num_slacks=7
num_states=26
objective=5.402681
objective_accelerations=0.794407
objective_balance=0.022426
objective_effort=0.188923
objective_height=4.371495
objective_ligament=0.025430
solver_duration=1705.284467
status=Solve_Succeeded
success=true
DataType=double
version=3
OpenSimVersion=4.4-2022-07-23-0e9fedc
endheader
time	/jointset/ground_pelvis/pelvis_tilt/value	/jointset/ground_pelvis/pelvis_tx/value	/jointset/ground_pelvis/pelvis_ty/value	/jointset/hip_l/hip_flexion_l/value	/jointset/hip_l/hip_adduction_l/value	/jointset/hip_l/hip_rotation_l/value	/jointset/back/lumbar_extension/value	/jointset/patellofemoral_l/patellar_flexion_l/value	/jointset/knee_l/knee_flexion_l/value	/jointset/knee_l/knee_adduction_l/value	/jointset/knee_l/knee_rotation_l/value	/jointset/ankle_l/ankle_angle_l/value	/jointset/subtalar_l/subtalar_angle_l/value	/jointset/ground_pelvis/pelvis_tilt/speed	/jointset/ground_pelvis/pelvis_tx/speed	/jointset/ground_pelvis/pelvis_ty/speed	/jointset/hip_l/hip_flexion_l/speed	/jointset/hip_l/hip_adduction_l/speed	/jointset/hip_l/hip_rotation_l/speed	/jointset/back/lumbar_extension/speed	/jointset/patellofemoral_l/patellar_flexion_l/speed	/jointset/knee_l/knee_flexion_l/speed	/jointset/knee_l/knee_adduction_l/speed	/jointset/knee_l/knee_rotation_l/speed	/jointset/ankle_l/ankle_angle_l/speed	/jointset/subtalar_l/subtalar_angle_l/speed	/forceset/tau_hip_flexion_l	/forceset/tau_hip_adduction_l	/forceset/tau_hip_rotation_l	/forceset/tau_knee_flexion_l	/forceset/tau_ankle_angle_l	/forceset/tau_subtalar_angle_l	/forceset/tau_lumbar_extension	lambda_cid13_p0	lambda_cid13_p1	lambda_cid13_p2	lambda_cid13_p3	lambda_cid13_p4	lambda_cid13_p5	lambda_cid14_p0	/jointset/ground_pelvis/pelvis_tilt/accel	/jointset/ground_pelvis/pelvis_tx/accel	/jointset/ground_pelvis/pelvis_ty/accel	/jointset/hip_l/hip_flexion_l/accel	/jointset/hip_l/hip_adduction_l/accel	/jointset/hip_l/hip_rotation_l/accel	/jointset/back/lumbar_extension/accel	/jointset/patellofemoral_l/patellar_flexion_l/accel	/jointset/knee_l/knee_flexion_l/accel	/jointset/knee_l/knee_adduction_l/accel	/jointset/knee_l/knee_rotation_l/accel	/jointset/ankle_l/ankle_angle_l/accel	/jointset/subtalar_l/subtalar_angle_l/accel	gamma_cid13_p0	gamma_cid13_p1	gamma_cid13_p2	gamma_cid13_p3	gamma_cid13_p4	gamma_cid13_p5	gamma_cid14_p0
0	0.04868346141703395	0.1078091030118576	0.9028754618911757	0.1266917050730164	-0.3700054016710773	-0.2208521743422352	-0.2144974744115991	0.2051547269256888	0.2051547269256735	-0.1745327681934069	-0.1562204404257942	0.09024399430361882	0.07901268807135992	0	0	0	0	0	0	0	0	0	0	0	0	0	0.1253150517231756	-0.09394464715082942	-0.01139249182934031	-0.2667766803260525	0.2033649313398556	-0.06218028565146114	-0.05549246854274249	36.06216900054139	22.35631502461824	-5.747781498443334	-25.92417515519709	-438.6646504246534	-75.10814277868842	-26.11251077901998	-3.785641987937627	-1.027518800779246	-0.9090482763294488	12.14535973253388	-0.1810840720425921	3.359596313788908	-3.672046816505216	11.10461547143869	11.1046154714337	2.30335161172174	-0.9742490324024931	3.756796353415799	0.8902043212280534	-1.452936660643098e-09	6.18185022642197e-07	-8.428670398962561e-08	5.366208666060409e-08	5.598672405034071e-09	2.308445692971459e-07	7.184912165248625e-08
0.01	0.04850240711764882	0.1077582539333118	0.902831349110164	0.1272819591373797	-0.3700134457597241	-0.2206767348936278	-0.214685615549497	0.2056958951033863	0.205695895103274	-0.1744195859262345	-0.1562564112662771	0.09042740407318925	0.0790568690093215	-0.03607600957581893	-0.0101466004928603	-0.008796686791515611	0.1175702441042415	-0.001587054007251458	0.03493562179300617	-0.03736606336780761	0.1077222593634096	0.1077222593633994	0.02254196347878461	-0.007130183505067783	0.03647323186048962	0.00880052726386543	0.1218663615615505	-0.09877746932319392	-0.01051418742200272	-0.2619702950878697	0.1946046434248253	-0.05521895811420351	-0.05283308905541421	33.60682707669517	19.48069936000172	-4.966960887139971	-24.38329882815049	-439.3549348241735	-80.70655207763647	-26.11260556171874	-3.498354364357022	-1.004737660004316	-0.8610973491427711	11.4907691544453	-0.1443320407071769	3.537736862744866	-3.729561464258225	10.52931037304606	10.52931037304755	2.215540389479418	-0.5728336556490405	3.561294886324185	0.8695407842614314	-1.474873062889057e-08	9.089850118496596e-07	-6.891392914807753e-08	9.378892893511489e-08	-2.007683986751462e-07	2.61804372352972e-07	1.091733290169029e-07
0.02	0.04796463793808391	0.1076066374525427	0.9027000457675218	0.1290334981237995	-0.3700367235836032	-0.2201565008770199	-0.2152395523945521	0.2072989417155483	0.2072989417155448	-0.1740837996897878	-0.1563617700710624	0.09096928781813088	0.07918796799098109	-0.07134297602977058	-0.02015348044467287	-0.0174381123260861	0.2322569844114543	-0.003046747040200402	0.06895891361355597	-0.07315914142914125	0.2123756868969878	0.2123756868969953	0.04452079389849439	-0.01387759285374677	0.07169479507932199	0.01738360873955918	0.1184176714005194	-0.1036102914952799	-0.009635883014604933	-0.2571639098490526	0.1858443555101392	-0.04825763057654206	-0.05017370956799527	31.20156218934413	16.60763183636822	-4.199475375590815	-22.90626473872885	-439.1597786001169	-86.12669325536073	-26.11259189620124	-3.623833363563699	-0.9995746925701766	-0.8779960249404012	11.56865897312826	-0.155611877182072	3.177130319297601	-3.357449755210167	10.49084910547248	10.49084910547307	2.190724999906816	-0.8976942011248181	3.506462625083796	0.8467151635935638	-2.804452459713804e-08	1.199785001057122e-06	-5.354115430652944e-08	1.339157712096257e-07	-4.071354697553266e-07	2.92764175408798e-07	1.464975363813196e-07
0.03	0.04707799814965181	0.1073555609857458	0.9024827982157133	0.1319182631116128	-0.370073846654606	-0.2193022154321493	-0.2161430069322338	0.2099340241168061	0.209934024116927	-0.1735307808775815	-0.156534248813494	0.09185726448003614	0.07940402557731396	-0.1058260015519176	-0.03004565088143442	-0.02600820859505945	0.3442031624588607	-0.004351582199358544	0.1017541605742944	-0.1072651877645907	0.3141327165989649	0.3141327165989659	0.06597302232920456	-0.02052400429934605	0.1056839449191161	0.02579742812137873	0.1140226993046778	-0.09882790167310776	-0.008541197772871822	-0.2515038571190633	0.1781198447060011	-0.04940389723815666	-0.04693098102112826	28.65086095181399	17.3464801723465	-4.082439773438661	-21.0740172740125	-439.0089062144176	-83.76053395030637	-26.11204269281087	-3.336683618098335	-0.9815869702210137	-0.8461202726305568	10.93366844595911	-0.1141492963064779	3.309165006839074	-3.397195320628791	9.941888936114738	9.941888936113456	2.106179717285664	-0.5340288167251368	3.312687009606433	0.8339605731094212	-3.51416151577906e-08	1.346342029306438e-06	-5.148837293280013e-08	1.569817706255642e-07	-5.471841562554992e-07	3.09897371305065e-07	1.68051954718201e-07
